<svg width="20" height="20" viewBox="0 0 20 20" fill="none" xmlns="http://www.w3.org/2000/svg">
<path fill-rule="evenodd" clip-rule="evenodd" d="M3.6801 1.6666C3.70317 1.66662 3.72647 1.66664 3.75001 1.66664H16.25C16.2735 1.66664 16.2968 1.66662 16.3199 1.6666C16.6372 1.66635 16.9104 1.66613 17.1544 1.71467C18.1461 1.91194 18.9214 2.68719 19.1186 3.67891C19.1672 3.92296 19.167 4.19616 19.1667 4.51341C19.1667 4.53647 19.1667 4.55977 19.1667 4.5833C19.1667 4.60684 19.1667 4.63014 19.1667 4.6532C19.167 4.97045 19.1672 5.24365 19.1186 5.4877C18.9449 6.36092 18.3231 7.06631 17.5 7.35708V13.5344C17.5 14.2052 17.5 14.7588 17.4632 15.2098C17.4249 15.6782 17.3428 16.1088 17.1367 16.5133C16.8171 17.1405 16.3072 17.6504 15.68 17.97C15.2755 18.1761 14.8449 18.2582 14.3765 18.2965C13.9255 18.3333 13.3719 18.3333 12.7011 18.3333H7.2989C6.6281 18.3333 6.07448 18.3333 5.62349 18.2965C5.15507 18.2582 4.72448 18.1761 4.32004 17.97C3.69283 17.6504 3.1829 17.1405 2.86332 16.5133C2.65724 16.1088 2.57511 15.6782 2.53683 15.2098C2.49999 14.7588 2.5 14.2052 2.50001 13.5344L2.50001 7.35708C1.67688 7.06631 1.05507 6.36093 0.881377 5.4877C0.832833 5.24365 0.833051 4.97046 0.833303 4.65321C0.833321 4.63014 0.83334 4.60684 0.83334 4.5833C0.83334 4.55977 0.833321 4.53647 0.833303 4.5134C0.833051 4.19615 0.832833 3.92296 0.881377 3.67891C1.07864 2.68719 1.85389 1.91194 2.84561 1.71467C3.08966 1.66613 3.36286 1.66635 3.6801 1.6666ZM4.16667 7.49997V13.5C4.16667 14.2138 4.16732 14.699 4.19797 15.0741C4.22782 15.4395 4.28192 15.6263 4.34833 15.7566C4.50812 16.0702 4.76309 16.3252 5.07669 16.485C5.20702 16.5514 5.39386 16.6055 5.7592 16.6353C6.13428 16.666 6.61952 16.6666 7.33334 16.6666H12.6667C13.3805 16.6666 13.8657 16.666 14.2408 16.6353C14.6062 16.6055 14.793 16.5514 14.9233 16.485C15.2369 16.3252 15.4919 16.0702 15.6517 15.7566C15.7181 15.6263 15.7722 15.4395 15.802 15.0741C15.8327 14.699 15.8333 14.2138 15.8333 13.5V7.49997H4.16667ZM16.5977 5.8333H3.40233C3.38662 5.83201 3.37079 5.83116 3.35484 5.83075C3.23521 5.82766 3.19103 5.82132 3.17076 5.81729C2.84019 5.75154 2.58177 5.49312 2.51602 5.16255C2.50404 5.10234 2.50001 5.01046 2.50001 4.5833C2.50001 4.15615 2.50404 4.06427 2.51602 4.00406C2.58177 3.67349 2.84019 3.41507 3.17076 3.34932C3.23097 3.33734 3.32285 3.3333 3.75001 3.3333H16.25C16.6772 3.3333 16.769 3.33734 16.8292 3.34932C17.1598 3.41507 17.4182 3.67349 17.484 4.00406C17.496 4.06427 17.5 4.15615 17.5 4.5833C17.5 5.01046 17.496 5.10234 17.484 5.16255C17.4182 5.49312 17.1598 5.75154 16.8292 5.81729C16.809 5.82132 16.7648 5.82766 16.6452 5.83075C16.6292 5.83116 16.6134 5.83201 16.5977 5.8333ZM7.50001 10.8333C7.50001 10.3731 7.8731 9.99997 8.33334 9.99997H11.6667C12.1269 9.99997 12.5 10.3731 12.5 10.8333C12.5 11.2935 12.1269 11.6666 11.6667 11.6666H8.33334C7.8731 11.6666 7.50001 11.2935 7.50001 10.8333Z" fill="#98A2B3"/>
</svg>
